# xmcd
#
# Track frame offsets:
#	182
#	11892
#	27257
#	43635
#	61672
#	75852
#	93032
#	103290
#	121885
#	143792
#	155997
#
# Disc length: 2330 seconds
#
# Revision: 2
# Processed by: cddbd v1.5.2PL0 Copyright (c) Steve Scherf et al.
# Submitted via: audiograbber 1.83.01
#
DISCID=8409180b
DTITLE=Steve Earle - Guitar Town
DYEAR=1986
DGENRE=Country Rock
TTITLE0=Guitar Town
TTITLE1=Goodbye's All We've Got Left
TTITLE2=Hillbilly Highway
TTITLE3=Good Ol' Boy (Gettin' Tough)
TTITLE4=My Old Friend The Blues
TTITLE5=Someday
TTITLE6=Think It Over
TTITLE7=Fearless Heart
TTITLE8=Little Rock 'n' Roller
TTITLE9=Down The Road
TTITLE10=Good Ol'  Boy (Gettin' Tough) (live)
EXTD=
EXTT0=
EXTT1=
EXTT2=
EXTT3=
EXTT4=
EXTT5=
EXTT6=
EXTT7=
EXTT8=
EXTT9=
EXTT10=
PLAYORDER=
